<svg xmlns="http://www.w3.org/2000/svg" fill="none" viewBox="0 0 548 112" height="112" width="548">
<g clip-path="url(#clip0_548_2)">
<mask fill="white" id="path-1-inside-1_548_2">
<path d="M86 7H548V106H86V7Z"></path>
</mask>
<mask fill="white" id="path-3-inside-2_548_2">
<path d="M86 7H163V40H86V7Z"></path>
</mask>
<path mask="url(#path-3-inside-2_548_2)" fill="black" d="M163 40V40.5H163.5V40H163ZM162.5 7V40H163.5V7H162.5ZM163 39.5H86V40.5H163V39.5Z"></path>
<rect stroke-width="0.5" stroke="black" height="32.5" width="76.5" y="7.25" x="163.25"></rect>
<rect stroke-width="0.5" stroke="black" height="32.5" width="76.5" y="7.25" x="240.25"></rect>
<rect stroke-width="0.5" stroke="black" height="32.5" width="76.5" y="7.25" x="317.25"></rect>
<rect stroke-width="0.5" stroke="black" height="32.5" width="76.5" y="7.25" x="394.25"></rect>
<mask fill="white" id="path-9-inside-3_548_2">
<path d="M471 7H548V40H471V7Z"></path>
</mask>
<path mask="url(#path-9-inside-3_548_2)" fill="black" d="M471 40H470.5V40.5H471V40ZM548 39.5H471V40.5H548V39.5ZM471.5 40V7H470.5V40H471.5Z"></path>
<path fill="black" d="M100.903 27V20.268H98.2629V18.768H105.355V20.268H102.703V27H100.903ZM104.715 27L107.883 18.768H110.091L113.259 27H111.327L110.739 25.38H107.151L106.563 27H104.715ZM107.667 23.94H110.223L109.491 21.912C109.459 21.824 109.419 21.72 109.371 21.6C109.331 21.472 109.287 21.332 109.239 21.18C109.191 21.028 109.143 20.88 109.095 20.736C109.055 20.584 109.015 20.448 108.975 20.328H108.903C108.863 20.48 108.811 20.66 108.747 20.868C108.683 21.068 108.619 21.264 108.555 21.456C108.491 21.64 108.439 21.792 108.399 21.912L107.667 23.94ZM114.238 27V18.768H116.962L118.138 22.98C118.186 23.132 118.234 23.312 118.282 23.52C118.33 23.728 118.378 23.936 118.426 24.144C118.482 24.344 118.526 24.524 118.558 24.684H118.654C118.67 24.548 118.698 24.388 118.738 24.204C118.778 24.012 118.822 23.808 118.87 23.592C118.918 23.376 118.97 23.168 119.026 22.968L120.202 18.768H122.878V27H121.114V23.1C121.114 22.74 121.114 22.38 121.114 22.02C121.122 21.652 121.13 21.332 121.138 21.06C121.154 20.788 121.162 20.612 121.162 20.532H121.066C121.05 20.62 121.01 20.784 120.946 21.024C120.89 21.256 120.826 21.504 120.754 21.768C120.69 22.032 120.63 22.26 120.574 22.452L119.29 27H117.73L116.434 22.464C116.386 22.296 116.33 22.1 116.266 21.876C116.21 21.644 116.154 21.408 116.098 21.168C116.05 20.92 116.002 20.708 115.954 20.532H115.858C115.866 20.748 115.874 21.008 115.882 21.312C115.89 21.608 115.898 21.916 115.906 22.236C115.914 22.548 115.918 22.836 115.918 23.1V27H114.238ZM123.863 27L127.031 18.768H129.239L132.407 27H130.475L129.887 25.38H126.299L125.711 27H123.863ZM126.815 23.94H129.371L128.639 21.912C128.607 21.824 128.567 21.72 128.519 21.6C128.479 21.472 128.435 21.332 128.387 21.18C128.339 21.028 128.291 20.88 128.243 20.736C128.203 20.584 128.163 20.448 128.123 20.328H128.051C128.011 20.48 127.959 20.66 127.895 20.868C127.831 21.068 127.767 21.264 127.703 21.456C127.639 21.64 127.587 21.792 127.547 21.912L126.815 23.94ZM133.387 27V18.768H135.031L138.343 23.208C138.391 23.264 138.451 23.344 138.523 23.448C138.595 23.544 138.663 23.64 138.727 23.736C138.791 23.832 138.835 23.908 138.859 23.964H138.919C138.919 23.828 138.919 23.696 138.919 23.568C138.919 23.432 138.919 23.312 138.919 23.208V18.768H140.611V27H138.967L135.583 22.452C135.503 22.34 135.419 22.216 135.331 22.08C135.243 21.944 135.179 21.84 135.139 21.768H135.079C135.079 21.888 135.079 22.008 135.079 22.128C135.079 22.24 135.079 22.348 135.079 22.452V27H133.387ZM134.851 17.964C134.851 17.7 134.895 17.456 134.983 17.232C135.079 17.008 135.219 16.828 135.403 16.692C135.587 16.556 135.819 16.488 136.099 16.488C136.315 16.488 136.519 16.524 136.711 16.596C136.903 16.668 137.091 16.74 137.275 16.812C137.467 16.884 137.659 16.92 137.851 16.92C137.971 16.92 138.067 16.888 138.139 16.824C138.219 16.76 138.267 16.648 138.283 16.488H139.135C139.135 16.744 139.091 16.984 139.003 17.208C138.915 17.432 138.779 17.616 138.595 17.76C138.411 17.896 138.175 17.964 137.887 17.964C137.679 17.964 137.475 17.928 137.275 17.856C137.083 17.784 136.895 17.712 136.711 17.64C136.527 17.56 136.339 17.52 136.147 17.52C136.035 17.52 135.939 17.556 135.859 17.628C135.779 17.7 135.731 17.812 135.715 17.964H134.851ZM146.273 27.144C145.401 27.144 144.649 26.988 144.017 26.676C143.385 26.364 142.901 25.892 142.565 25.26C142.229 24.628 142.061 23.836 142.061 22.884C142.061 21.916 142.229 21.12 142.565 20.496C142.901 19.864 143.385 19.396 144.017 19.092C144.649 18.78 145.401 18.624 146.273 18.624C147.161 18.624 147.917 18.78 148.541 19.092C149.173 19.396 149.657 19.864 149.993 20.496C150.329 21.12 150.497 21.916 150.497 22.884C150.497 23.836 150.329 24.628 149.993 25.26C149.657 25.892 149.173 26.364 148.541 26.676C147.917 26.988 147.161 27.144 146.273 27.144ZM146.273 25.68C146.665 25.68 147.009 25.624 147.305 25.512C147.601 25.4 147.849 25.232 148.049 25.008C148.249 24.784 148.401 24.512 148.505 24.192C148.609 23.864 148.661 23.492 148.661 23.076V22.704C148.661 22.28 148.609 21.904 148.505 21.576C148.401 21.248 148.249 20.976 148.049 20.76C147.849 20.536 147.601 20.368 147.305 20.256C147.009 20.144 146.665 20.088 146.273 20.088C145.889 20.088 145.549 20.144 145.253 20.256C144.957 20.368 144.709 20.536 144.509 20.76C144.309 20.976 144.157 21.248 144.053 21.576C143.957 21.904 143.909 22.28 143.909 22.704V23.076C143.909 23.492 143.957 23.864 144.053 24.192C144.157 24.512 144.309 24.784 144.509 25.008C144.709 25.232 144.957 25.4 145.253 25.512C145.549 25.624 145.889 25.68 146.273 25.68Z"></path>
<path fill="black" d="M120.23 61L123.398 52.768H125.606L128.774 61H126.842L126.254 59.38H122.666L122.078 61H120.23ZM123.182 57.94H125.738L125.006 55.912C124.974 55.824 124.934 55.72 124.886 55.6C124.846 55.472 124.802 55.332 124.754 55.18C124.706 55.028 124.658 54.88 124.61 54.736C124.57 54.584 124.53 54.448 124.49 54.328H124.418C124.378 54.48 124.326 54.66 124.262 54.868C124.198 55.068 124.134 55.264 124.07 55.456C124.006 55.64 123.954 55.792 123.914 55.912L123.182 57.94Z"></path>
<path fill="black" d="M121.082 94V85.768H125.786C126.218 85.768 126.606 85.852 126.95 86.02C127.302 86.188 127.578 86.424 127.778 86.728C127.978 87.032 128.078 87.388 128.078 87.796C128.078 88.124 128.018 88.416 127.898 88.672C127.778 88.928 127.614 89.14 127.406 89.308C127.206 89.476 126.978 89.6 126.722 89.68V89.728C127.026 89.792 127.294 89.912 127.526 90.088C127.766 90.264 127.954 90.492 128.09 90.772C128.234 91.044 128.306 91.368 128.306 91.744C128.306 92.24 128.19 92.656 127.958 92.992C127.734 93.328 127.434 93.58 127.058 93.748C126.682 93.916 126.262 94 125.798 94H121.082ZM122.87 92.536H125.45C125.746 92.536 125.986 92.452 126.17 92.284C126.362 92.116 126.458 91.856 126.458 91.504C126.458 91.296 126.418 91.116 126.338 90.964C126.258 90.812 126.138 90.696 125.978 90.616C125.818 90.528 125.614 90.484 125.366 90.484H122.87V92.536ZM122.87 89.092H125.246C125.462 89.092 125.642 89.052 125.786 88.972C125.938 88.884 126.05 88.772 126.122 88.636C126.202 88.492 126.242 88.328 126.242 88.144C126.242 87.832 126.154 87.596 125.978 87.436C125.81 87.276 125.586 87.196 125.306 87.196H122.87V89.092Z"></path>
<path fill="black" d="M201.544 28.144C201.064 28.144 200.608 28.096 200.176 28C199.744 27.904 199.36 27.752 199.024 27.544C198.696 27.328 198.436 27.06 198.244 26.74C198.06 26.412 197.968 26.016 197.968 25.552C197.968 25.512 197.968 25.472 197.968 25.432C197.968 25.384 197.972 25.348 197.98 25.324H199.756C199.748 25.348 199.744 25.38 199.744 25.42C199.744 25.46 199.744 25.496 199.744 25.528C199.744 25.784 199.812 26 199.948 26.176C200.092 26.352 200.3 26.484 200.572 26.572C200.844 26.66 201.16 26.704 201.52 26.704C201.752 26.704 201.956 26.692 202.132 26.668C202.316 26.636 202.476 26.596 202.612 26.548C202.756 26.492 202.872 26.428 202.96 26.356C203.056 26.284 203.124 26.2 203.164 26.104C203.212 26.008 203.236 25.9 203.236 25.78C203.236 25.564 203.164 25.388 203.02 25.252C202.884 25.116 202.692 25 202.444 24.904C202.204 24.808 201.932 24.72 201.628 24.64C201.324 24.56 201.012 24.48 200.692 24.4C200.372 24.312 200.06 24.208 199.756 24.088C199.452 23.96 199.18 23.808 198.94 23.632C198.7 23.456 198.508 23.232 198.364 22.96C198.22 22.688 198.148 22.36 198.148 21.976C198.148 21.568 198.232 21.216 198.4 20.92C198.576 20.624 198.82 20.38 199.132 20.188C199.444 19.996 199.804 19.856 200.212 19.768C200.62 19.672 201.064 19.624 201.544 19.624C201.992 19.624 202.416 19.672 202.816 19.768C203.216 19.856 203.568 20 203.872 20.2C204.176 20.4 204.412 20.652 204.58 20.956C204.756 21.26 204.844 21.62 204.844 22.036V22.18H203.104V22.084C203.104 21.868 203.04 21.684 202.912 21.532C202.784 21.38 202.604 21.26 202.372 21.172C202.14 21.084 201.868 21.04 201.556 21.04C201.22 21.04 200.932 21.072 200.692 21.136C200.46 21.2 200.28 21.296 200.152 21.424C200.032 21.544 199.972 21.688 199.972 21.856C199.972 22.048 200.04 22.208 200.176 22.336C200.32 22.456 200.512 22.564 200.752 22.66C201 22.748 201.276 22.828 201.58 22.9C201.884 22.972 202.196 23.052 202.516 23.14C202.836 23.228 203.148 23.332 203.452 23.452C203.756 23.572 204.028 23.724 204.268 23.908C204.508 24.084 204.7 24.304 204.844 24.568C204.988 24.832 205.06 25.148 205.06 25.516C205.06 26.148 204.908 26.656 204.604 27.04C204.3 27.424 203.884 27.704 203.356 27.88C202.828 28.056 202.224 28.144 201.544 28.144Z"></path>
<path fill="black" d="M274.18 28V19.768H276.904L278.08 23.98C278.128 24.132 278.176 24.312 278.224 24.52C278.272 24.728 278.32 24.936 278.368 25.144C278.424 25.344 278.468 25.524 278.5 25.684H278.596C278.612 25.548 278.64 25.388 278.68 25.204C278.72 25.012 278.764 24.808 278.812 24.592C278.86 24.376 278.912 24.168 278.968 23.968L280.144 19.768H282.82V28H281.056V24.1C281.056 23.74 281.056 23.38 281.056 23.02C281.064 22.652 281.072 22.332 281.08 22.06C281.096 21.788 281.104 21.612 281.104 21.532H281.008C280.992 21.62 280.952 21.784 280.888 22.024C280.832 22.256 280.768 22.504 280.696 22.768C280.632 23.032 280.572 23.26 280.516 23.452L279.232 28H277.672L276.376 23.464C276.328 23.296 276.272 23.1 276.208 22.876C276.152 22.644 276.096 22.408 276.04 22.168C275.992 21.92 275.944 21.708 275.896 21.532H275.8C275.808 21.748 275.816 22.008 275.824 22.312C275.832 22.608 275.84 22.916 275.848 23.236C275.856 23.548 275.86 23.836 275.86 24.1V28H274.18Z"></path>
<path fill="black" d="M352.867 28V19.768H354.655V26.476H358.807V28H352.867Z"></path>
<path fill="black" d="M424.827 28L427.791 23.668L425.115 19.768H427.299L429.003 22.372H429.063L430.755 19.768H432.807L430.119 23.668L433.083 28H430.899L428.919 24.952H428.859L426.891 28H424.827ZM434.103 28V19.768H435.891V26.476H440.043V28H434.103Z"></path>
<path fill="black" d="M429.402 61V59.2H425.694V57.868C426.006 57.372 426.298 56.848 426.57 56.296C426.842 55.744 427.094 55.16 427.326 54.544C427.566 53.928 427.766 53.288 427.926 52.624H429.642C429.554 53.008 429.43 53.412 429.27 53.836C429.118 54.26 428.942 54.68 428.742 55.096C428.542 55.512 428.338 55.904 428.13 56.272C427.93 56.632 427.738 56.952 427.554 57.232C427.37 57.512 427.214 57.724 427.086 57.868H429.402V55.876C429.482 55.724 429.562 55.56 429.642 55.384C429.73 55.2 429.814 55.016 429.894 54.832C429.974 54.64 430.046 54.452 430.11 54.268C430.182 54.084 430.238 53.912 430.278 53.752H431.046V57.868H432.102V59.2H431.046V61H429.402ZM436.238 61.144C435.734 61.144 435.286 61.072 434.894 60.928C434.51 60.784 434.182 60.556 433.91 60.244C433.638 59.932 433.434 59.52 433.298 59.008C433.162 58.488 433.094 57.856 433.094 57.112C433.094 56.272 433.162 55.564 433.298 54.988C433.434 54.412 433.63 53.952 433.886 53.608C434.15 53.256 434.474 53.004 434.858 52.852C435.242 52.7 435.686 52.624 436.19 52.624C436.798 52.624 437.302 52.736 437.702 52.96C438.11 53.184 438.41 53.492 438.602 53.884C438.802 54.268 438.902 54.716 438.902 55.228H437.282C437.282 54.948 437.242 54.712 437.162 54.52C437.082 54.32 436.958 54.168 436.79 54.064C436.622 53.96 436.41 53.908 436.154 53.908C435.778 53.908 435.49 54.008 435.29 54.208C435.098 54.4 434.966 54.684 434.894 55.06C434.83 55.436 434.794 55.892 434.786 56.428C434.866 56.348 434.986 56.252 435.146 56.14C435.314 56.028 435.522 55.932 435.77 55.852C436.018 55.764 436.286 55.72 436.574 55.72C437.142 55.72 437.618 55.836 438.002 56.068C438.394 56.292 438.686 56.604 438.878 57.004C439.07 57.404 439.166 57.868 439.166 58.396C439.166 58.964 439.038 59.456 438.782 59.872C438.534 60.28 438.19 60.596 437.75 60.82C437.318 61.036 436.814 61.144 436.238 61.144ZM436.178 59.848C436.474 59.848 436.718 59.788 436.91 59.668C437.102 59.54 437.246 59.368 437.342 59.152C437.438 58.928 437.486 58.68 437.486 58.408C437.486 58.12 437.438 57.868 437.342 57.652C437.246 57.436 437.102 57.268 436.91 57.148C436.718 57.02 436.474 56.956 436.178 56.956C435.89 56.956 435.646 57.02 435.446 57.148C435.254 57.268 435.11 57.436 435.014 57.652C434.918 57.868 434.87 58.12 434.87 58.408C434.87 58.688 434.918 58.94 435.014 59.164C435.11 59.38 435.254 59.548 435.446 59.668C435.646 59.788 435.89 59.848 436.178 59.848Z"></path>
<path fill="black" d="M352.396 61V59.2H348.688V57.868C349 57.372 349.292 56.848 349.564 56.296C349.836 55.744 350.088 55.16 350.32 54.544C350.56 53.928 350.76 53.288 350.92 52.624H352.636C352.548 53.008 352.424 53.412 352.264 53.836C352.112 54.26 351.936 54.68 351.736 55.096C351.536 55.512 351.332 55.904 351.124 56.272C350.924 56.632 350.732 56.952 350.548 57.232C350.364 57.512 350.208 57.724 350.08 57.868H352.396V55.876C352.476 55.724 352.556 55.56 352.636 55.384C352.724 55.2 352.808 55.016 352.888 54.832C352.968 54.64 353.04 54.452 353.104 54.268C353.176 54.084 353.232 53.912 353.272 53.752H354.04V57.868H355.096V59.2H354.04V61H352.396ZM359.556 61V59.2H355.848V57.868C356.16 57.372 356.452 56.848 356.724 56.296C356.996 55.744 357.248 55.16 357.48 54.544C357.72 53.928 357.92 53.288 358.08 52.624H359.796C359.708 53.008 359.584 53.412 359.424 53.836C359.272 54.26 359.096 54.68 358.896 55.096C358.696 55.512 358.492 55.904 358.284 56.272C358.084 56.632 357.892 56.952 357.708 57.232C357.524 57.512 357.368 57.724 357.24 57.868H359.556V55.876C359.636 55.724 359.716 55.56 359.796 55.384C359.884 55.2 359.968 55.016 360.048 54.832C360.128 54.64 360.2 54.452 360.264 54.268C360.336 54.084 360.392 53.912 360.432 53.752H361.2V57.868H362.256V59.2H361.2V61H359.556Z"></path>
<path fill="black" d="M275.402 60V58.2H271.694V56.868C272.006 56.372 272.298 55.848 272.57 55.296C272.842 54.744 273.094 54.16 273.326 53.544C273.566 52.928 273.766 52.288 273.926 51.624H275.642C275.554 52.008 275.43 52.412 275.27 52.836C275.118 53.26 274.942 53.68 274.742 54.096C274.542 54.512 274.338 54.904 274.13 55.272C273.93 55.632 273.738 55.952 273.554 56.232C273.37 56.512 273.214 56.724 273.086 56.868H275.402V54.876C275.482 54.724 275.562 54.56 275.642 54.384C275.73 54.2 275.814 54.016 275.894 53.832C275.974 53.64 276.046 53.452 276.11 53.268C276.182 53.084 276.238 52.912 276.278 52.752H277.046V56.868H278.102V58.2H277.046V60H275.402ZM279.118 60V59.568C279.118 59.208 279.182 58.88 279.31 58.584C279.438 58.288 279.614 58.016 279.838 57.768C280.062 57.52 280.31 57.284 280.582 57.06C280.854 56.836 281.134 56.62 281.422 56.412C281.75 56.164 282.058 55.92 282.346 55.68C282.642 55.44 282.882 55.184 283.066 54.912C283.25 54.632 283.342 54.324 283.342 53.988C283.342 53.828 283.302 53.668 283.222 53.508C283.142 53.348 283.014 53.216 282.838 53.112C282.67 53 282.442 52.944 282.154 52.944C281.858 52.944 281.614 52.996 281.422 53.1C281.23 53.196 281.082 53.336 280.978 53.52C280.882 53.696 280.834 53.916 280.834 54.18V54.612H279.226C279.218 54.572 279.21 54.516 279.202 54.444C279.194 54.372 279.19 54.284 279.19 54.18C279.19 53.596 279.322 53.116 279.586 52.74C279.858 52.364 280.222 52.084 280.678 51.9C281.142 51.716 281.666 51.624 282.25 51.624C282.778 51.624 283.218 51.7 283.57 51.852C283.93 51.996 284.218 52.192 284.434 52.44C284.65 52.68 284.802 52.944 284.89 53.232C284.986 53.512 285.034 53.784 285.034 54.048C285.034 54.424 284.966 54.768 284.83 55.08C284.694 55.392 284.51 55.684 284.278 55.956C284.046 56.228 283.77 56.492 283.45 56.748C283.13 56.996 282.79 57.244 282.43 57.492C282.246 57.62 282.07 57.744 281.902 57.864C281.742 57.984 281.602 58.1 281.482 58.212C281.37 58.316 281.282 58.42 281.218 58.524H285.094V60H279.118Z"></path>
<path fill="black" d="M497.59 28L500.554 23.668L497.878 19.768H500.062L501.766 22.372H501.826L503.518 19.768H505.57L502.882 23.668L505.846 28H503.662L501.682 24.952H501.622L499.654 28H497.59ZM506.063 28L509.027 23.668L506.351 19.768H508.535L510.239 22.372H510.299L511.991 19.768H514.043L511.355 23.668L514.319 28H512.135L510.155 24.952H510.095L508.127 28H506.063ZM515.34 28V19.768H517.128V26.476H521.28V28H515.34Z"></path>
<path fill="black" d="M198.408 61V59.2H194.7V57.868C195.012 57.372 195.304 56.848 195.576 56.296C195.848 55.744 196.1 55.16 196.332 54.544C196.572 53.928 196.772 53.288 196.932 52.624H198.648C198.56 53.008 198.436 53.412 198.276 53.836C198.124 54.26 197.948 54.68 197.748 55.096C197.548 55.512 197.344 55.904 197.136 56.272C196.936 56.632 196.744 56.952 196.56 57.232C196.376 57.512 196.22 57.724 196.092 57.868H198.408V55.876C198.488 55.724 198.568 55.56 198.648 55.384C198.736 55.2 198.82 55.016 198.9 54.832C198.98 54.64 199.052 54.452 199.116 54.268C199.188 54.084 199.244 53.912 199.284 53.752H200.052V57.868H201.108V59.2H200.052V61H198.408ZM205.088 61.144C204.592 61.144 204.156 61.072 203.78 60.928C203.404 60.776 203.088 60.536 202.832 60.208C202.584 59.872 202.396 59.432 202.268 58.888C202.148 58.344 202.088 57.676 202.088 56.884C202.088 56.084 202.148 55.416 202.268 54.88C202.396 54.336 202.584 53.896 202.832 53.56C203.088 53.224 203.404 52.984 203.78 52.84C204.156 52.696 204.592 52.624 205.088 52.624C205.592 52.624 206.028 52.696 206.396 52.84C206.764 52.984 207.072 53.224 207.32 53.56C207.576 53.896 207.764 54.336 207.884 54.88C208.012 55.416 208.076 56.084 208.076 56.884C208.076 57.676 208.012 58.344 207.884 58.888C207.764 59.432 207.576 59.872 207.32 60.208C207.072 60.536 206.764 60.776 206.396 60.928C206.028 61.072 205.592 61.144 205.088 61.144ZM205.088 59.848C205.44 59.848 205.708 59.756 205.892 59.572C206.076 59.38 206.204 59.092 206.276 58.708C206.348 58.324 206.384 57.844 206.384 57.268V56.524C206.384 55.94 206.348 55.456 206.276 55.072C206.204 54.68 206.076 54.388 205.892 54.196C205.708 54.004 205.44 53.908 205.088 53.908C204.736 53.908 204.464 54.004 204.272 54.196C204.088 54.388 203.96 54.676 203.888 55.06C203.816 55.436 203.78 55.916 203.78 56.5V57.244C203.78 57.828 203.816 58.316 203.888 58.708C203.96 59.092 204.088 59.38 204.272 59.572C204.464 59.756 204.736 59.848 205.088 59.848Z"></path>
<path fill="black" d="M197.831 94.144C197.223 94.144 196.715 94.032 196.307 93.808C195.907 93.584 195.607 93.276 195.407 92.884C195.207 92.492 195.107 92.04 195.107 91.528H196.739C196.739 91.808 196.779 92.048 196.859 92.248C196.939 92.448 197.063 92.6 197.231 92.704C197.399 92.8 197.611 92.848 197.867 92.848C198.243 92.848 198.527 92.752 198.719 92.56C198.911 92.36 199.039 92.072 199.103 91.696C199.175 91.312 199.215 90.856 199.223 90.328C199.151 90.408 199.031 90.504 198.863 90.616C198.703 90.728 198.499 90.828 198.251 90.916C198.011 90.996 197.743 91.036 197.447 91.036C196.879 91.036 196.403 90.924 196.019 90.7C195.635 90.476 195.343 90.16 195.143 89.752C194.951 89.344 194.855 88.884 194.855 88.372C194.855 87.796 194.979 87.304 195.227 86.896C195.475 86.488 195.819 86.176 196.259 85.96C196.699 85.736 197.203 85.624 197.771 85.624C198.275 85.624 198.723 85.696 199.115 85.84C199.507 85.976 199.835 86.2 200.099 86.512C200.371 86.824 200.575 87.24 200.711 87.76C200.855 88.272 200.927 88.9 200.927 89.644C200.927 90.484 200.859 91.192 200.723 91.768C200.587 92.344 200.387 92.808 200.123 93.16C199.867 93.504 199.543 93.756 199.151 93.916C198.767 94.068 198.327 94.144 197.831 94.144ZM197.831 89.812C198.127 89.812 198.371 89.752 198.563 89.632C198.763 89.504 198.907 89.332 198.995 89.116C199.091 88.892 199.139 88.64 199.139 88.36C199.139 88.072 199.091 87.82 198.995 87.604C198.907 87.388 198.763 87.22 198.563 87.1C198.371 86.972 198.127 86.908 197.831 86.908C197.543 86.908 197.303 86.972 197.111 87.1C196.919 87.228 196.775 87.4 196.679 87.616C196.583 87.832 196.535 88.08 196.535 88.36C196.535 88.648 196.583 88.9 196.679 89.116C196.775 89.332 196.919 89.504 197.111 89.632C197.303 89.752 197.543 89.812 197.831 89.812ZM204.968 94.144C204.36 94.144 203.852 94.032 203.444 93.808C203.044 93.584 202.744 93.276 202.544 92.884C202.344 92.492 202.244 92.04 202.244 91.528H203.876C203.876 91.808 203.916 92.048 203.996 92.248C204.076 92.448 204.2 92.6 204.368 92.704C204.536 92.8 204.748 92.848 205.004 92.848C205.38 92.848 205.664 92.752 205.856 92.56C206.048 92.36 206.176 92.072 206.24 91.696C206.312 91.312 206.352 90.856 206.36 90.328C206.288 90.408 206.168 90.504 206 90.616C205.84 90.728 205.636 90.828 205.388 90.916C205.148 90.996 204.88 91.036 204.584 91.036C204.016 91.036 203.54 90.924 203.156 90.7C202.772 90.476 202.48 90.16 202.28 89.752C202.088 89.344 201.992 88.884 201.992 88.372C201.992 87.796 202.116 87.304 202.364 86.896C202.612 86.488 202.956 86.176 203.396 85.96C203.836 85.736 204.34 85.624 204.908 85.624C205.412 85.624 205.86 85.696 206.252 85.84C206.644 85.976 206.972 86.2 207.236 86.512C207.508 86.824 207.712 87.24 207.848 87.76C207.992 88.272 208.064 88.9 208.064 89.644C208.064 90.484 207.996 91.192 207.86 91.768C207.724 92.344 207.524 92.808 207.26 93.16C207.004 93.504 206.68 93.756 206.288 93.916C205.904 94.068 205.464 94.144 204.968 94.144ZM204.968 89.812C205.264 89.812 205.508 89.752 205.7 89.632C205.9 89.504 206.044 89.332 206.132 89.116C206.228 88.892 206.276 88.64 206.276 88.36C206.276 88.072 206.228 87.82 206.132 87.604C206.044 87.388 205.9 87.22 205.7 87.1C205.508 86.972 205.264 86.908 204.968 86.908C204.68 86.908 204.44 86.972 204.248 87.1C204.056 87.228 203.912 87.4 203.816 87.616C203.72 87.832 203.672 88.08 203.672 88.36C203.672 88.648 203.72 88.9 203.816 89.116C203.912 89.332 204.056 89.504 204.248 89.632C204.44 89.752 204.68 89.812 204.968 89.812Z"></path>
<path fill="black" d="M268.983 94V92.656H270.951V87.796H268.971V86.788C269.235 86.764 269.539 86.704 269.883 86.608C270.235 86.504 270.587 86.38 270.939 86.236C271.291 86.084 271.607 85.924 271.887 85.756H272.631V92.656H274.467V94H268.983ZM278.508 94.144C278.012 94.144 277.576 94.072 277.2 93.928C276.824 93.776 276.508 93.536 276.252 93.208C276.004 92.872 275.816 92.432 275.688 91.888C275.568 91.344 275.508 90.676 275.508 89.884C275.508 89.084 275.568 88.416 275.688 87.88C275.816 87.336 276.004 86.896 276.252 86.56C276.508 86.224 276.824 85.984 277.2 85.84C277.576 85.696 278.012 85.624 278.508 85.624C279.012 85.624 279.448 85.696 279.816 85.84C280.184 85.984 280.492 86.224 280.74 86.56C280.996 86.896 281.184 87.336 281.304 87.88C281.432 88.416 281.496 89.084 281.496 89.884C281.496 90.676 281.432 91.344 281.304 91.888C281.184 92.432 280.996 92.872 280.74 93.208C280.492 93.536 280.184 93.776 279.816 93.928C279.448 94.072 279.012 94.144 278.508 94.144ZM278.508 92.848C278.86 92.848 279.128 92.756 279.312 92.572C279.496 92.38 279.624 92.092 279.696 91.708C279.768 91.324 279.804 90.844 279.804 90.268V89.524C279.804 88.94 279.768 88.456 279.696 88.072C279.624 87.68 279.496 87.388 279.312 87.196C279.128 87.004 278.86 86.908 278.508 86.908C278.156 86.908 277.884 87.004 277.692 87.196C277.508 87.388 277.38 87.676 277.308 88.06C277.236 88.436 277.2 88.916 277.2 89.5V90.244C277.2 90.828 277.236 91.316 277.308 91.708C277.38 92.092 277.508 92.38 277.692 92.572C277.884 92.756 278.156 92.848 278.508 92.848ZM282.68 94V93.568C282.68 93.208 282.744 92.88 282.872 92.584C283 92.288 283.176 92.016 283.4 91.768C283.624 91.52 283.872 91.284 284.144 91.06C284.416 90.836 284.696 90.62 284.984 90.412C285.312 90.164 285.62 89.92 285.908 89.68C286.204 89.44 286.444 89.184 286.628 88.912C286.812 88.632 286.904 88.324 286.904 87.988C286.904 87.828 286.864 87.668 286.784 87.508C286.704 87.348 286.576 87.216 286.4 87.112C286.232 87 286.004 86.944 285.716 86.944C285.42 86.944 285.176 86.996 284.984 87.1C284.792 87.196 284.644 87.336 284.54 87.52C284.444 87.696 284.396 87.916 284.396 88.18V88.612H282.788C282.78 88.572 282.772 88.516 282.764 88.444C282.756 88.372 282.752 88.284 282.752 88.18C282.752 87.596 282.884 87.116 283.148 86.74C283.42 86.364 283.784 86.084 284.24 85.9C284.704 85.716 285.228 85.624 285.812 85.624C286.34 85.624 286.78 85.7 287.132 85.852C287.492 85.996 287.78 86.192 287.996 86.44C288.212 86.68 288.364 86.944 288.452 87.232C288.548 87.512 288.596 87.784 288.596 88.048C288.596 88.424 288.528 88.768 288.392 89.08C288.256 89.392 288.072 89.684 287.84 89.956C287.608 90.228 287.332 90.492 287.012 90.748C286.692 90.996 286.352 91.244 285.992 91.492C285.808 91.62 285.632 91.744 285.464 91.864C285.304 91.984 285.164 92.1 285.044 92.212C284.932 92.316 284.844 92.42 284.78 92.524H288.656V94H282.68Z"></path>
<path fill="black" d="M345.989 94V92.656H347.957V87.796H345.977V86.788C346.241 86.764 346.545 86.704 346.889 86.608C347.241 86.504 347.593 86.38 347.945 86.236C348.297 86.084 348.613 85.924 348.893 85.756H349.637V92.656H351.473V94H345.989ZM355.514 94.144C355.018 94.144 354.582 94.072 354.206 93.928C353.83 93.776 353.514 93.536 353.258 93.208C353.01 92.872 352.822 92.432 352.694 91.888C352.574 91.344 352.514 90.676 352.514 89.884C352.514 89.084 352.574 88.416 352.694 87.88C352.822 87.336 353.01 86.896 353.258 86.56C353.514 86.224 353.83 85.984 354.206 85.84C354.582 85.696 355.018 85.624 355.514 85.624C356.018 85.624 356.454 85.696 356.822 85.84C357.19 85.984 357.498 86.224 357.746 86.56C358.002 86.896 358.19 87.336 358.31 87.88C358.438 88.416 358.502 89.084 358.502 89.884C358.502 90.676 358.438 91.344 358.31 91.888C358.19 92.432 358.002 92.872 357.746 93.208C357.498 93.536 357.19 93.776 356.822 93.928C356.454 94.072 356.018 94.144 355.514 94.144ZM355.514 92.848C355.866 92.848 356.134 92.756 356.318 92.572C356.502 92.38 356.63 92.092 356.702 91.708C356.774 91.324 356.81 90.844 356.81 90.268V89.524C356.81 88.94 356.774 88.456 356.702 88.072C356.63 87.68 356.502 87.388 356.318 87.196C356.134 87.004 355.866 86.908 355.514 86.908C355.162 86.908 354.89 87.004 354.698 87.196C354.514 87.388 354.386 87.676 354.314 88.06C354.242 88.436 354.206 88.916 354.206 89.5V90.244C354.206 90.828 354.242 91.316 354.314 91.708C354.386 92.092 354.514 92.38 354.698 92.572C354.89 92.756 355.162 92.848 355.514 92.848ZM362.662 94.144C362.038 94.144 361.494 94.036 361.03 93.82C360.574 93.596 360.222 93.28 359.974 92.872C359.726 92.464 359.602 91.98 359.602 91.42H361.246C361.246 91.7 361.298 91.952 361.402 92.176C361.514 92.392 361.674 92.56 361.882 92.68C362.09 92.792 362.334 92.848 362.614 92.848C362.886 92.848 363.118 92.788 363.31 92.668C363.51 92.548 363.666 92.376 363.778 92.152C363.89 91.92 363.946 91.636 363.946 91.3C363.946 90.988 363.89 90.728 363.778 90.52C363.674 90.304 363.522 90.144 363.322 90.04C363.13 89.928 362.902 89.872 362.638 89.872C362.43 89.872 362.246 89.908 362.086 89.98C361.934 90.044 361.802 90.124 361.69 90.22C361.578 90.316 361.482 90.42 361.402 90.532L359.902 90.34L360.238 85.768H365.182V87.244H361.63L361.498 89.104C361.586 89.04 361.702 88.972 361.846 88.9C361.99 88.828 362.166 88.764 362.374 88.708C362.59 88.644 362.838 88.612 363.118 88.612C363.598 88.612 364.026 88.712 364.402 88.912C364.786 89.112 365.09 89.412 365.314 89.812C365.538 90.204 365.65 90.704 365.65 91.312C365.65 91.896 365.526 92.4 365.278 92.824C365.038 93.248 364.694 93.576 364.246 93.808C363.806 94.032 363.278 94.144 362.662 94.144Z"></path>
<path fill="black" d="M422.983 94V92.656H424.951V87.796H422.971V86.788C423.235 86.764 423.539 86.704 423.883 86.608C424.235 86.504 424.587 86.38 424.939 86.236C425.291 86.084 425.607 85.924 425.887 85.756H426.631V92.656H428.467V94H422.983ZM432.508 94.144C432.012 94.144 431.576 94.072 431.2 93.928C430.824 93.776 430.508 93.536 430.252 93.208C430.004 92.872 429.816 92.432 429.688 91.888C429.568 91.344 429.508 90.676 429.508 89.884C429.508 89.084 429.568 88.416 429.688 87.88C429.816 87.336 430.004 86.896 430.252 86.56C430.508 86.224 430.824 85.984 431.2 85.84C431.576 85.696 432.012 85.624 432.508 85.624C433.012 85.624 433.448 85.696 433.816 85.84C434.184 85.984 434.492 86.224 434.74 86.56C434.996 86.896 435.184 87.336 435.304 87.88C435.432 88.416 435.496 89.084 435.496 89.884C435.496 90.676 435.432 91.344 435.304 91.888C435.184 92.432 434.996 92.872 434.74 93.208C434.492 93.536 434.184 93.776 433.816 93.928C433.448 94.072 433.012 94.144 432.508 94.144ZM432.508 92.848C432.86 92.848 433.128 92.756 433.312 92.572C433.496 92.38 433.624 92.092 433.696 91.708C433.768 91.324 433.804 90.844 433.804 90.268V89.524C433.804 88.94 433.768 88.456 433.696 88.072C433.624 87.68 433.496 87.388 433.312 87.196C433.128 87.004 432.86 86.908 432.508 86.908C432.156 86.908 431.884 87.004 431.692 87.196C431.508 87.388 431.38 87.676 431.308 88.06C431.236 88.436 431.2 88.916 431.2 89.5V90.244C431.2 90.828 431.236 91.316 431.308 91.708C431.38 92.092 431.508 92.38 431.692 92.572C431.884 92.756 432.156 92.848 432.508 92.848ZM439.644 94.144C438.948 94.144 438.372 94.04 437.916 93.832C437.468 93.624 437.132 93.34 436.908 92.98C436.692 92.612 436.584 92.2 436.584 91.744C436.584 91.28 436.692 90.888 436.908 90.568C437.132 90.24 437.468 89.98 437.916 89.788C437.532 89.556 437.252 89.288 437.076 88.984C436.908 88.672 436.824 88.324 436.824 87.94C436.824 87.492 436.932 87.096 437.148 86.752C437.364 86.4 437.684 86.124 438.108 85.924C438.532 85.724 439.044 85.624 439.644 85.624C440.236 85.624 440.74 85.724 441.156 85.924C441.58 86.124 441.904 86.4 442.128 86.752C442.352 87.096 442.464 87.492 442.464 87.94C442.464 88.324 442.372 88.672 442.188 88.984C442.012 89.296 441.736 89.564 441.36 89.788C441.816 89.98 442.152 90.24 442.368 90.568C442.584 90.888 442.692 91.28 442.692 91.744C442.692 92.2 442.58 92.612 442.356 92.98C442.14 93.34 441.804 93.624 441.348 93.832C440.9 94.04 440.332 94.144 439.644 94.144ZM439.644 92.86C440.068 92.86 440.396 92.752 440.628 92.536C440.868 92.32 440.988 92.024 440.988 91.648C440.988 91.256 440.868 90.956 440.628 90.748C440.388 90.532 440.06 90.424 439.644 90.424C439.22 90.424 438.888 90.532 438.648 90.748C438.408 90.956 438.288 91.256 438.288 91.648C438.288 92.024 438.404 92.32 438.636 92.536C438.876 92.752 439.212 92.86 439.644 92.86ZM439.644 89.164C440.004 89.164 440.296 89.068 440.52 88.876C440.744 88.684 440.856 88.404 440.856 88.036C440.856 87.668 440.744 87.388 440.52 87.196C440.304 86.996 440.012 86.896 439.644 86.896C439.268 86.896 438.972 86.996 438.756 87.196C438.54 87.388 438.432 87.668 438.432 88.036C438.432 88.404 438.54 88.684 438.756 88.876C438.972 89.068 439.268 89.164 439.644 89.164Z"></path>
<path fill="black" d="M499.977 94V92.656H501.945V87.796H499.965V86.788C500.229 86.764 500.533 86.704 500.877 86.608C501.229 86.504 501.581 86.38 501.933 86.236C502.285 86.084 502.601 85.924 502.881 85.756H503.625V92.656H505.461V94H499.977ZM507.126 94V92.656H509.094V87.796H507.114V86.788C507.378 86.764 507.682 86.704 508.026 86.608C508.378 86.504 508.73 86.38 509.082 86.236C509.434 86.084 509.75 85.924 510.03 85.756H510.774V92.656H512.61V94H507.126ZM514.274 94V92.656H516.242V87.796H514.262V86.788C514.526 86.764 514.83 86.704 515.174 86.608C515.526 86.504 515.878 86.38 516.23 86.236C516.582 86.084 516.898 85.924 517.178 85.756H517.922V92.656H519.758V94H514.274Z"></path>
<path fill="black" d="M506.402 61V59.2H502.694V57.868C503.006 57.372 503.298 56.848 503.57 56.296C503.842 55.744 504.094 55.16 504.326 54.544C504.566 53.928 504.766 53.288 504.926 52.624H506.642C506.554 53.008 506.43 53.412 506.27 53.836C506.118 54.26 505.942 54.68 505.742 55.096C505.542 55.512 505.338 55.904 505.13 56.272C504.93 56.632 504.738 56.952 504.554 57.232C504.37 57.512 504.214 57.724 504.086 57.868H506.402V55.876C506.482 55.724 506.562 55.56 506.642 55.384C506.73 55.2 506.814 55.016 506.894 54.832C506.974 54.64 507.046 54.452 507.11 54.268C507.182 54.084 507.238 53.912 507.278 53.752H508.046V57.868H509.102V59.2H508.046V61H506.402ZM513.082 61.144C512.386 61.144 511.81 61.04 511.354 60.832C510.906 60.624 510.57 60.34 510.346 59.98C510.13 59.612 510.022 59.2 510.022 58.744C510.022 58.28 510.13 57.888 510.346 57.568C510.57 57.24 510.906 56.98 511.354 56.788C510.97 56.556 510.69 56.288 510.514 55.984C510.346 55.672 510.262 55.324 510.262 54.94C510.262 54.492 510.37 54.096 510.586 53.752C510.802 53.4 511.122 53.124 511.546 52.924C511.97 52.724 512.482 52.624 513.082 52.624C513.674 52.624 514.178 52.724 514.594 52.924C515.018 53.124 515.342 53.4 515.566 53.752C515.79 54.096 515.902 54.492 515.902 54.94C515.902 55.324 515.81 55.672 515.626 55.984C515.45 56.296 515.174 56.564 514.798 56.788C515.254 56.98 515.59 57.24 515.806 57.568C516.022 57.888 516.13 58.28 516.13 58.744C516.13 59.2 516.018 59.612 515.794 59.98C515.578 60.34 515.242 60.624 514.786 60.832C514.338 61.04 513.77 61.144 513.082 61.144ZM513.082 59.86C513.506 59.86 513.834 59.752 514.066 59.536C514.306 59.32 514.426 59.024 514.426 58.648C514.426 58.256 514.306 57.956 514.066 57.748C513.826 57.532 513.498 57.424 513.082 57.424C512.658 57.424 512.326 57.532 512.086 57.748C511.846 57.956 511.726 58.256 511.726 58.648C511.726 59.024 511.842 59.32 512.074 59.536C512.314 59.752 512.65 59.86 513.082 59.86ZM513.082 56.164C513.442 56.164 513.734 56.068 513.958 55.876C514.182 55.684 514.294 55.404 514.294 55.036C514.294 54.668 514.182 54.388 513.958 54.196C513.742 53.996 513.45 53.896 513.082 53.896C512.706 53.896 512.41 53.996 512.194 54.196C511.978 54.388 511.87 54.668 511.87 55.036C511.87 55.404 511.978 55.684 512.194 55.876C512.41 56.068 512.706 56.164 513.082 56.164Z"></path>
<mask fill="white" id="path-29-inside-4_548_2">
<path d="M471 40H548V73H471V40Z"></path>
</mask>
<path mask="url(#path-29-inside-4_548_2)" fill="black" d="M471 40V39.5H470.5V40H471ZM471 73H470.5V73.5H471V73ZM471 40.5H548V39.5H471V40.5ZM548 72.5H471V73.5H548V72.5ZM471.5 73V40H470.5V73H471.5Z"></path>
<rect stroke-width="0.5" stroke="black" height="32.5" width="76.5" y="73.25" x="394.25"></rect>
<mask fill="white" id="path-32-inside-5_548_2">
<path d="M471 73H548V101C548 103.761 545.761 106 543 106H471V73Z"></path>
</mask>
<path mask="url(#path-32-inside-5_548_2)" fill="black" d="M470.93 72.5H548.07L547.93 73.5H471.07L470.93 72.5ZM548 106H471H548ZM470.93 106V72.5L471.07 73.5V106H470.93ZM548.07 72.5V100.93C548.07 103.73 545.8 106 543 106H543C545.723 106 547.93 103.761 547.93 101V73.5L548.07 72.5Z"></path>
<rect stroke-width="0.5" stroke="black" height="32.5" width="76.5" y="73.25" x="317.25"></rect>
<rect stroke-width="0.5" stroke="black" height="32.5" width="76.5" y="40.25" x="317.25"></rect>
<rect stroke-width="0.5" stroke="black" height="32.5" width="76.5" y="40.25" x="394.25"></rect>
<mask fill="white" id="path-37-inside-6_548_2">
<path d="M163 73H240V106H163V73Z"></path>
</mask>
<path mask="url(#path-37-inside-6_548_2)" fill="black" d="M163 73V72.5H162.5V73H163ZM240 73H240.5V72.5H240V73ZM240 106V106.5H240.5V106H240ZM163 106H162.5V106.5H163V106ZM163 73.5H240V72.5H163V73.5ZM239.5 73V106H240.5V73H239.5ZM240 105.5H163V106.5H240V105.5ZM163.5 106V73H162.5V106H163.5Z"></path>
<mask fill="white" id="path-39-inside-7_548_2">
<path d="M86 73H163V106H91C88.2386 106 86 103.761 86 101V73Z"></path>
</mask>
<path mask="url(#path-39-inside-7_548_2)" fill="black" d="M86 72.5H163.5L162.5 73.5H86V72.5ZM163 106H86H163ZM86 106V73V106ZM163.5 72.5V106H162.5V73.5L163.5 72.5Z"></path>
<mask fill="white" id="path-41-inside-8_548_2">
<path d="M86 40H163V73H86V40Z"></path>
</mask>
<path mask="url(#path-41-inside-8_548_2)" fill="black" d="M163 40H163.5V39.5H163V40ZM163 73V73.5H163.5V73H163ZM86 40.5H163V39.5H86V40.5ZM162.5 40V73H163.5V40H162.5ZM163 72.5H86V73.5H163V72.5Z"></path>
<mask fill="white" id="path-43-inside-9_548_2">
<path d="M163 40H240V73H163V40Z"></path>
</mask>
<path mask="url(#path-43-inside-9_548_2)" fill="black" d="M163 40V39.5H162.5V40H163ZM240 40H240.5V39.5H240V40ZM240 73V73.5H240.5V73H240ZM163 73H162.5V73.5H163V73ZM163 40.5H240V39.5H163V40.5ZM239.5 40V73H240.5V40H239.5ZM240 72.5H163V73.5H240V72.5ZM163.5 73V40H162.5V73H163.5Z"></path>
<rect stroke-width="0.5" stroke="black" height="32.5" width="76.5" y="40.25" x="240.25"></rect>
<mask fill="white" id="path-46-inside-10_548_2">
<path d="M240 73H317V106H240V73Z"></path>
</mask>
<path mask="url(#path-46-inside-10_548_2)" fill="black" d="M240 73V72.5H239.5V73H240ZM317 73H317.5V72.5H317V73ZM317 106V106.5H317.5V106H317ZM240 106H239.5V106.5H240V106ZM240 73.5H317V72.5H240V73.5ZM316.5 73V106H317.5V73H316.5ZM317 105.5H240V106.5H317V105.5ZM240.5 106V73H239.5V106H240.5Z"></path>
</g>
<path mask="url(#path-1-inside-1_548_2)" fill="black" d="M86 7V6H85V7H86ZM548 7H549V6H548V7ZM548 106V107H549V106H548ZM86 106H85V107H86V106ZM86 8H548V6H86V8ZM547 7V106H549V7H547ZM548 105H86V107H548V105ZM87 106V7H85V106H87Z"></path>
<g clip-path="url(#clip1_548_2)">
<path fill="black" d="M44.9585 17.1562C45.7264 17.6915 46.5618 17.9861 47.2057 18.6398C49.2959 20.7616 49.2504 24.1716 47.211 26.3681C46.7079 26.9099 46.0408 27.31 45.318 27.5589C44.9225 27.6952 44.7769 27.9409 44.7639 28.3734C44.6936 30.6958 44.7019 30.6402 46.8723 31.4494C50.958 32.9727 55.2037 33.8214 59.471 34.6053C61.3213 34.9452 63.1813 35.2641 64.9987 35.7385C66.1095 36.0285 66.9197 36.9416 67.8412 37.6059C71.5006 40.2436 75.1444 42.9031 78.7937 45.555C79.1084 45.7837 79.4212 46.0152 79.7351 46.2451C80.883 47.0861 81.054 47.927 80.265 49.1016C79.4554 50.3068 78.6152 51.4915 77.7803 52.6795C76.111 55.055 74.4354 57.426 72.7644 59.8002C72.302 60.4572 71.8483 61.1203 71.3876 61.7785C70.7602 62.6749 69.9396 62.8714 69.051 62.2472C68.1206 61.5936 67.2444 60.863 66.3054 60.1358C66.0972 60.4792 66.1829 60.8205 66.1827 61.1385C66.1777 72.3362 66.1739 83.534 66.1892 94.7318C66.1904 95.5554 66.1188 96.3311 65.6647 97.0978C50.8617 97.1563 36.0668 97.1563 21.1986 97.1563C20.6659 96.6692 20.5908 96.0883 20.5917 95.4352C20.607 83.902 20.6036 72.3688 20.598 60.8356C20.5978 60.5103 20.6856 60.1671 20.4622 59.7679C19.8574 60.2964 19.281 60.8029 18.7013 61.3056C18.3296 61.6281 17.9679 61.9648 17.5753 62.2599C16.9055 62.7633 16.2163 62.7073 15.6235 62.1299C14.831 61.3581 14.3704 60.3501 13.781 59.4419C11.2561 55.5509 8.79398 51.6192 6.31003 47.7017C5.63018 46.6295 5.76131 45.7318 6.76078 45.0921C11.4592 42.0847 16.1694 39.0957 20.8744 36.0985C21.8275 35.4913 22.9465 35.4743 23.9983 35.2545C27.4887 34.5252 31.0197 33.9731 34.4825 33.1354C36.844 32.5641 39.1167 31.6261 41.4316 30.8598C41.8583 30.7185 41.8517 30.3835 41.8521 30.0393C41.8534 28.9459 41.8474 27.8524 41.8563 26.759C41.8656 25.6145 42.1872 25.2486 43.3196 25.0594C45.0535 24.7698 45.9404 23.7143 45.758 22.1578C45.6109 20.9031 44.6162 20.0289 43.3301 20.0242C42.0785 20.0196 41.0268 20.936 40.8675 22.1702C40.7074 23.4102 40.2356 23.9414 39.3056 23.9285C38.4251 23.9164 37.8471 23.2334 37.8837 22.3469C37.9926 19.7055 39.4274 18.099 41.8608 17.1843C42.8995 17.1563 43.8924 17.1562 44.9585 17.1562ZM44.9549 43.7772C43.6631 44.0742 42.3569 44.0275 41.1034 43.6839C37.5499 42.7099 35.2082 40.452 34.2052 36.8745C34.0766 36.4159 33.9235 36.2578 33.3904 36.3698C30.6325 36.9494 27.854 37.4326 25.1014 38.0352C24.036 38.2684 22.9291 38.3084 21.9367 38.9601C18.903 40.9524 15.7965 42.8335 12.7477 44.8033C11.6651 45.5027 10.5139 46.1104 9.53159 46.9585C9.62503 47.3231 9.80753 47.6011 9.99129 47.8862C12.1397 51.2195 14.2833 54.5558 16.421 57.8959C16.9933 58.7901 17.1096 58.8086 17.8898 58.0483C18.9306 57.0341 19.9552 55.9984 21.1306 55.1376C21.781 54.6613 23.098 54.7964 23.3803 55.9139C23.4971 56.376 23.5248 56.8328 23.5248 57.3009C23.5234 69.2773 23.5235 81.2537 23.524 93.23C23.5241 94.287 23.526 94.2886 24.6006 94.2886C37.1237 94.2891 49.6468 94.2891 62.1699 94.2888C63.2574 94.2888 63.2581 94.2876 63.2581 93.1652C63.2584 81.1108 63.2579 69.0563 63.2592 57.0018C63.2593 55.7434 63.7654 55.2729 64.9612 55.3874C65.4645 55.4355 65.7987 55.7662 66.1565 56.0605C67.0978 56.8347 68.0363 57.6124 68.9755 58.3893C69.4799 58.8066 69.8188 58.8488 70.2566 58.1873C71.5857 56.1789 73.0154 54.2372 74.3961 52.2626C75.3422 50.9095 76.2718 49.5449 77.2148 48.1767C76.9392 47.9505 76.7283 47.7586 76.499 47.5921C72.9343 45.003 69.3755 42.4057 65.7934 39.8409C65.126 39.363 64.552 38.6594 63.7363 38.4862C60.3227 37.7612 56.8894 37.1292 53.475 36.4077C52.8043 36.2659 52.603 36.4278 52.4143 37.0557C51.3089 40.7327 48.8412 42.9601 44.9549 43.7772ZM37.7216 35.2581C37.0791 35.3884 36.8786 35.7155 37.1185 36.3681C38.0881 39.0061 40.2072 40.8331 43.0777 40.9877C46.087 41.1499 48.5876 39.2255 49.5431 36.2738C49.7266 35.7067 49.5886 35.4826 49.0478 35.3105C47.2962 34.7529 45.5556 34.1605 43.8147 33.5698C43.4792 33.456 43.1776 33.4551 42.8351 33.5706C41.171 34.1319 39.498 34.6667 37.7216 35.2581Z"></path>
<line stroke-width="1.33333" stroke="black" y2="57.6654" x2="60.3332" y1="57.6654" x1="25.6665"></line>
<line stroke-width="1.33333" stroke="black" y2="92.9945" x2="34.0001" y1="39.9958" x1="33.6667"></line>
<path fill="black" d="M24.7752 91L27.4152 84.14H29.2552L31.8952 91H30.2852L29.7952 89.65H26.8052L26.3152 91H24.7752ZM27.2352 88.45H29.3652L28.7552 86.76C28.7285 86.6867 28.6952 86.6 28.6552 86.5C28.6218 86.3933 28.5852 86.2767 28.5452 86.15C28.5052 86.0233 28.4652 85.9 28.4252 85.78C28.3918 85.6533 28.3585 85.54 28.3252 85.44H28.2652C28.2318 85.5667 28.1885 85.7167 28.1352 85.89C28.0818 86.0567 28.0285 86.22 27.9752 86.38C27.9218 86.5333 27.8785 86.66 27.8452 86.76L27.2352 88.45Z"></path>
<path fill="black" d="M53.4849 67V60.14H57.4049C57.7649 60.14 58.0883 60.21 58.3749 60.35C58.6683 60.49 58.8983 60.6867 59.0649 60.94C59.2316 61.1933 59.3149 61.49 59.3149 61.83C59.3149 62.1033 59.2649 62.3467 59.1649 62.56C59.0649 62.7733 58.9283 62.95 58.7549 63.09C58.5883 63.23 58.3983 63.3333 58.1849 63.4V63.44C58.4383 63.4933 58.6616 63.5933 58.8549 63.74C59.0549 63.8867 59.2116 64.0767 59.3249 64.31C59.4449 64.5367 59.5049 64.8067 59.5049 65.12C59.5049 65.5333 59.4083 65.88 59.2149 66.16C59.0283 66.44 58.7783 66.65 58.4649 66.79C58.1516 66.93 57.8016 67 57.4149 67H53.4849ZM54.9749 65.78H57.1249C57.3716 65.78 57.5716 65.71 57.7249 65.57C57.8849 65.43 57.9649 65.2133 57.9649 64.92C57.9649 64.7467 57.9316 64.5967 57.8649 64.47C57.7983 64.3433 57.6983 64.2467 57.5649 64.18C57.4316 64.1067 57.2616 64.07 57.0549 64.07H54.9749V65.78ZM54.9749 62.91H56.9549C57.1349 62.91 57.2849 62.8767 57.4049 62.81C57.5316 62.7367 57.6249 62.6433 57.6849 62.53C57.7516 62.41 57.7849 62.2733 57.7849 62.12C57.7849 61.86 57.7116 61.6633 57.5649 61.53C57.4249 61.3967 57.2383 61.33 57.0049 61.33H54.9749V62.91Z"></path>
</g>
<defs>
<clipPath id="clip0_548_2">
<path fill="white" d="M86 7H548V106H86V7Z"></path>
</clipPath>
<clipPath id="clip1_548_2">
<rect transform="translate(3 17)" fill="white" height="80" width="80"></rect>
</clipPath>
</defs>
</svg>
